<svg xmlns="http://www.w3.org/2000/svg" viewBox="0 0 128 160" x="0px" y="0px"><g><path d="M70.507,62.814c-.552,0-1.109-.006-1.661-.013a.636.636,0,0,1-.684-.006c-2.7-.032-5.4-.051-8.094.184.063,1.933.386,3.847.443,5.78,1.591.038,3.176.089,4.767.146.063-.3.12-.6.2-.894a.541.541,0,0,1,.552-.576c.2,0,.405.006.614.006.007,0,.013-.006.019-.006,1.236-.089,2.466-.2,3.683-.4.044-.342.089-.684.12-1.027a1,1,0,0,1,.083-1.191A19.437,19.437,0,0,0,70.507,62.814ZM64.916,66.3c-.633,0-1.578.006-2.395.044a.951.951,0,0,1-.032-1.9c.817-.038,1.794-.045,2.427-.045A.951.951,0,0,1,64.916,66.3Zm3.8.12h-1.9c-.634,0-.634-1.9,0-1.9h1.9A.951.951,0,1,1,68.719,66.42Z"/><path d="M100.152,87.852l.239.014c.095,0,.192.017.287.03l.043,0,.042-.009a6.892,6.892,0,0,1,1.8-.1l.057,0,.051-.021a1.634,1.634,0,0,0,1.026-1.33,13.425,13.425,0,0,0,.148-2.736c-.043-.327-.091-.657-.139-.986l-.1-.7H99.493l.134.341c.056.142.111.283.158.425a13.723,13.723,0,0,1,.378,4.3Z"/><path d="M59.438,53.753l.128-.023c.361-.064.716-.142,1.07-.232l.2-.051-.013-.207c-.056-.876-.075-2.179-.082-2.877l0-.462-.384.256a.705.705,0,0,1-.145.069,2.3,2.3,0,0,0-1.227,1.6A1.858,1.858,0,0,0,59.21,53.5Z"/><path d="M63.262,56.586l-.092.076v.118l.006.06a2.427,2.427,0,0,0,.636,1.57,1.038,1.038,0,0,0,.727.32l.056,0a.652.652,0,0,0,.569-.476A1.847,1.847,0,0,0,65,56.646,1.287,1.287,0,0,0,63.262,56.586Z"/><path d="M67.285,79.939l.225.048a10.822,10.822,0,0,1,.876.715l.37.337.048-.5A52.257,52.257,0,0,0,68.87,73.9c-.058-1.751-.118-3.562-.028-5.337l.015-.283-.282.021c-.241.017-.476.024-.762.031l-.25.007.006.249c.024.937.082,1.889.138,2.809a25.928,25.928,0,0,1-.383,8.282Z"/><path d="M60.389,57.276h0c-.024.369-.055.726-.085,1.076a19.221,19.221,0,0,0-.106,2.333l.027.785.432-.656c.214-.325.421-.655.627-.984.318-.508.647-1.033,1-1.524l.076-.106-.044-.123a1.687,1.687,0,0,1,.831-2.186,2.515,2.515,0,0,1,1.128-.219l.262.012v-1.5l-.288.044a30.922,30.922,0,0,1-4.528.193l-.21,0-.035.206c-.026.155-.057.3-.089.456l-.046.223.274.241A1.668,1.668,0,0,1,60.389,57.276Z"/><path d="M65.165,35.337l-.023-.225H63.963l.063,1.32.265-.029c.23-.025.459-.043.7-.056l.249-.013-.013-.249C65.21,35.833,65.191,35.588,65.165,35.337Z"/><path d="M64.258,37.036l-.22.033.007.222c.032.931.058,1.855.076,2.786l.006.321.311-.085a11.815,11.815,0,0,0,3.937-2.379c.233-.185.462-.368.687-.542l.337-.26-.391-.168a.4.4,0,0,1-.086-.049l-.081-.058-.1.014a14.293,14.293,0,0,1-2.139.071A13.951,13.951,0,0,0,64.258,37.036Z"/><path d="M63.516,51.234a1.885,1.885,0,0,0,1.035,1.037l.088.041.092-.028c.211-.069.482-.01.546.116l.058.114.127.019a4.127,4.127,0,0,0,.6.045,3.18,3.18,0,0,0,1.555-.361,1.979,1.979,0,0,0,.992-1.444,3.537,3.537,0,0,0-.938-2.755l-.045-.05-.063-.02a2.961,2.961,0,0,0-2.675.33C64.1,48.834,63.078,50.08,63.516,51.234Z"/><path d="M82.963,71.538l.288,0-.042-.285c-.051-.346-.109-.693-.18-1.039l-.04-.2h-.2a20.353,20.353,0,0,0-3.2.148l-.2.03-.015.2c-.025.313-.043.626-.064.987l-.017.284.284-.02C80.717,71.558,81.923,71.544,82.963,71.538Z"/><path d="M70.648,61.923l.064-.045a.291.291,0,0,1,.173-.057c.81.007,1.628.02,2.445.033l.247,0,.007-.246c0-.2.018-.395.038-.619-.007-.681,0-1.285.031-1.848l.012-.241-.24-.021c-1.267-.112-3.03-.148-4.246-.166l-.209,0-.04.206a12.272,12.272,0,0,0-.12,2.674l.008.314.241,0c.5.007,1.009.013,1.511.013Z"/><path d="M69.655,56.333c0,.128.007.256.009.385a6.1,6.1,0,0,0,.091,1.158l.04.2.2,0c.543.006,1.06.019,1.572.038l.262.009,0-.262c-.006-.551-.013-1.12.019-1.675l.015-.27-.27.005a12.071,12.071,0,0,0-1.729.156l-.217.036Z"/><path d="M65.132,59.625l.02-.282-.1-.066-.113.033a1.293,1.293,0,0,1-.293.053,1.759,1.759,0,0,1-1.442-.709L63,58.405l-.188.265c-.367.518-.714,1.059-1.049,1.584-.293.457-.585.914-.892,1.359l-.294.425.515-.033c1.941-.127,3.9-.133,5.555-.12l.379,0-.148-.349a3.67,3.67,0,0,0-1.653-2.145Z"/><path d="M43.378,56.069c.473,0,.944-.006,1.419-.015l.258-.005-.013-.258c-.021-.4-.075-.795-.127-1.178l-.059-.442-.14-.053a1.762,1.762,0,0,0-1.335-.14.8.8,0,0,0-.407.518c-.054.181-.1.361-.15.539-.064.238-.127.473-.2.7l-.107.325.341,0Z"/><path d="M59.632,58.02c.16-.66.377-1.563-.259-1.953-.068-.047-.129-.088-.2-.129l-.1-.06-.11.038a1.327,1.327,0,0,1-.149.042,26.549,26.549,0,0,1-4.836.527l-.338.04.122.328a.353.353,0,0,1,.013.04,71.978,71.978,0,0,1,.148,8.35c-.016.769-.032,1.539-.042,2.309l0,.235.409.032c.107.01.211.02.309.024l.108.028.04,0a.322.322,0,0,1,.266.078,1.98,1.98,0,0,1,.574.883l.057.18.188,0c1.128-.025,2.284-.027,3.533-.006l.262,0-.008-.262c-.03-.986-.131-1.977-.229-2.935-.107-1.045-.217-2.125-.234-3.2a.383.383,0,0,1,.038-.173.351.351,0,0,1,.278-.281l.241-.044-.04-.243a14.152,14.152,0,0,1-.149-3.3A3.992,3.992,0,0,1,59.632,58.02Z"/><path d="M55.96,24.1l-.105.09a.42.42,0,0,1-.089.056l-.058.04a.612.612,0,0,1-.275.14.586.586,0,0,0-.5.468,2.208,2.208,0,0,0-.064.285l-.044.288h7.238l.021-.227c.007-.077.014-.155.014-.226,0-.1,0-.184-.007-.253,0-.019,0-.062-.011-.107L62,24.3l-.176-.017a.825.825,0,0,1-.272-.078l-.1-.046-.1.039a8.211,8.211,0,0,1-5.266-.056Z"/><path d="M59.834,15.02l-.271.005.028.269c.039.392.049.8.058,1.189.006.238.011.476.023.713l.053.225.5.031a15.553,15.553,0,0,0,1.547-.213l.114-.022.056-.1a12.18,12.18,0,0,0,.81-1.792l.125-.339-.362,0C61.618,14.994,60.729,15,59.834,15.02Z"/><path d="M52.167,57.655l.029-.2a12.673,12.673,0,0,0,.1-1.648v0a.618.618,0,0,1,.243-.523l.092-.07.007-.115c.019-.32.037-.64.069-.96l.031-.314-.608.077c-.243.028-.486.057-.717.106a2.161,2.161,0,0,0-.513.149s-.089.066-.108.085a.5.5,0,0,0-.135.251,1.768,1.768,0,0,0-.064.335c-.035.4-.039.8-.044,1.157l-.014.094a.344.344,0,0,1-.32.365c-2.318.171-4.584.26-6.733.266h-.24l-.009.239a.846.846,0,0,1-.086.364l-.028.677h.251c3.15-.021,5.963-.125,8.6-.318Z"/><path d="M68.391,33.114l-.028-.223-.224,0c-.432.006-.86.019-1.292.031l-.029.251-.007-.25-.243.007v1.412h1.887l0-.255C68.444,33.8,68.432,33.452,68.391,33.114Z"/><path d="M52.562,70.656l.227.025c.407.045.808.083,1.215.121l.325.031-.055-.322c-.034-.195-.076-.388-.119-.582a5.475,5.475,0,0,1-.176-1.266l-.012-.257-.313-.005-.043,0a.616.616,0,0,1-.255-.037c-.181-.025-.362-.043-.578-.064l-.315-.032.042.313a12.2,12.2,0,0,1,.061,1.845Z"/><path d="M63.069,49.393l-.506.247a3.5,3.5,0,0,1-.969.327L61.383,50v.213c0,1.22.016,2.188.1,3.252l-.01.33.254,0a16.108,16.108,0,0,0,2.475-.191l.326.007v-.634l-.157-.063a2.492,2.492,0,0,1-1.219-.978v0a2.414,2.414,0,0,1-.244-2Z"/><path d="M57.83,54.466a.327.327,0,0,0,.013-.076,4.051,4.051,0,0,1,.6-4.855,2.709,2.709,0,0,1,.025-3.239,4.959,4.959,0,0,1,4.069-1.978c-.051-5.717-.222-11.51-.735-17.2H55.149c.234,4.843-.139,9.755-.241,14.6-.051,2.516-.019,5.032-.038,7.549-.019,1.882-.431,3.7-.57,5.559A24.57,24.57,0,0,0,57.83,54.466Zm-1.914-13.05c.158-6.573.913-11.866,1.185-11.866.323.038.038,5.337-.114,11.891-.12,6.541-.323,11.878-.627,11.878C56.074,53.319,55.8,48,55.916,41.416Z"/><path d="M68.444,58.232l.053-.048.02-.069c.055-.2.155-.318.2-.318h.134v-.288l.228-.047c-.012-.054-.015-.286-.018-.472a9.471,9.471,0,0,0-.052-1.031l-.035-.254-.253.042a18.91,18.91,0,0,1-2.872.275l-.247.01v.313l.033.057a2.532,2.532,0,0,1,.025,2.163l-.1.2.193.119a5.325,5.325,0,0,1,1.86,2.612l.091.172.179-.026.137-.046h.166l-.011-.26a12.279,12.279,0,0,1,.179-3.041A.6.6,0,0,0,68.444,58.232Z"/><path d="M68.63,52.262a1.94,1.94,0,0,1-.483.389l0,0a4.636,4.636,0,0,1-2.574.525l-.27-.022v2.256l.255-.005a17.6,17.6,0,0,0,3.3-.183l.184-.038L69.051,55c.043-.568.032-1.14.022-1.692-.006-.291-.011-.582-.009-.872l.005-.648Z"/><path d="M62.417,46.13l-.037-.006c-.052-.006-.1-.017-.17-.032a1.759,1.759,0,0,0-.738.06,2.655,2.655,0,0,0-1.882,1.766.932.932,0,0,0,.489.864l.1.037a.444.444,0,0,1,.222.087l.057.046.072.007a4.622,4.622,0,0,0,.523.029,4.118,4.118,0,0,0,2.12-.562,6.143,6.143,0,0,0,.634-.609l.1-.11-.049-.138A2.17,2.17,0,0,0,62.417,46.13Z"/><path d="M100.232,89.86l.021.2.2.02c.736.073,1.477.152,2.218.231l1.339.142L104,90.167c-.019-.471-.012-.948-.006-1.426l0-.242-.243-.011c-.272-.012-.545-.03-.876-.05l-.043,0-.042.012a5.524,5.524,0,0,1-1.926.086l-.042,0-.042.011a3.6,3.6,0,0,0-.462.149l-.163.067.007.175C100.181,89.242,100.2,89.551,100.232,89.86Z"/><path d="M55.805,15.3l-.064-.158-1.944.026.874,2.142.186-.019a12.239,12.239,0,0,1,1.268-.062h.338l-.1-.324C56.169,16.264,55.992,15.753,55.805,15.3Z"/><path d="M92.406,67.723c.475-.013.956-.019,1.448-.026l.267,0-.02-.266c-.021-.276-.031-.555-.041-.835l-.027-.67-.246.007c-.465.012-.936.032-1.4.057L92.163,66l-.007.23c-.01.312-.009.624-.008.936v.564Z"/><path d="M90.029,63.41a4.505,4.505,0,0,0,.767-.095c.013-.526.025-1.053.025-1.56-3.315.19-6.585.837-9.913.951-3.087.1-6.173.038-9.267.013a16.932,16.932,0,0,1,.038,1.8h1.477a.951.951,0,1,1,0,1.9h-1.6c-.038.419-.095.831-.152,1.249a.644.644,0,0,1,.076.285.564.564,0,0,1-.545.571c-.336.031-.856.044-1.2.044-.222,4.329.393,8.652-.159,12.962a26.924,26.924,0,0,0,3.9-.4c-.006-.653-.019-1.515-.076-2.231a.829.829,0,0,1,.051-.406.859.859,0,0,1,.9-.742c1.388.007,2.77.083,4.158.089a40.492,40.492,0,0,1-.14-5.742.873.873,0,0,1,.013-.222c.032-.583.07-1.173.121-1.762a.851.851,0,0,1,.069-.235.472.472,0,0,1,.406-.526,21.273,21.273,0,0,1,4.114-.228.351.351,0,0,1,.114.025.49.49,0,0,1,.589.393,17.6,17.6,0,0,1,.355,2.06.393.393,0,0,1,.044.45c.1.976.134,1.965.146,2.954a6.636,6.636,0,0,1,.754-.209c.127-1.75.216-3.5.222-5.261a.537.537,0,0,1,.152-.38.522.522,0,0,1,.527-.406,26.881,26.881,0,0,0,2.852-.051.468.468,0,0,1,.253.038.528.528,0,0,1,.476.533c.019,1.9.234,3.8.291,5.692a16.379,16.379,0,0,1,4.424,1.584,12.843,12.843,0,0,1,.292-4.2.9.9,0,0,1,.108-.241.92.92,0,0,1,.64-.742,14.812,14.812,0,0,1,1.7-.469,24.315,24.315,0,0,0-.051-2.446c-1.686.164-3.372.107-5.071.177a.475.475,0,0,1-.45-.228.52.52,0,0,1-.2-.418c-.013-.634-.007-1.262.012-1.889a.906.906,0,0,1-.323-.621.629.629,0,0,1-.146-.229,6.185,6.185,0,0,1-.773.07.951.951,0,1,1,0-1.9ZM78.506,66.027a18.743,18.743,0,0,1-1.984.115.952.952,0,0,1,0-1.9,18.743,18.743,0,0,0,1.984-.114.95.95,0,0,1,.951.951A.979.979,0,0,1,78.506,66.027Zm4.652-.082c-.577.07-1.762.076-1.762.082a.951.951,0,0,1,0-1.9,15.709,15.709,0,0,0,1.756-.082.965.965,0,0,1,.97.95A.986.986,0,0,1,83.158,65.945Zm4.951-.349a12.711,12.711,0,0,1-1.839.07.951.951,0,0,1,0-1.9,11.429,11.429,0,0,0,1.331-.007.975.975,0,0,1,1.167.666A.95.95,0,0,1,88.109,65.6Z"/><path d="M96.583,78.4l.318.316c.045.045.094.087.142.128s.081.069.118.106c.292.293.727.738,1.124,1.218l.075.091h.118l.1-.021a6.98,6.98,0,0,0,.879-.33l.2-.087-.056-.207,0-.006,13.607-3.888a.75.75,0,0,0-.412-1.442L98.9,78.25a1.671,1.671,0,0,0-.238-.221l-.083-.057-.1.017c-.514.086-1,.2-1.456.307Z"/><path d="M86.413,89.081c3.13.275,6.366.561,9.565.674.758.028,1.6.079,2.563.157l.3.024-.029-.3c-.039-.383-.063-.759-.082-1.136l-.013-.259-.259.023a49.032,49.032,0,0,1-6.617,0,42.464,42.464,0,0,0-7.752.12l-2.206.308,2.22.189C84.871,88.944,85.642,89.013,86.413,89.081Z"/><path d="M65.809,35.389c.024.236.043.479.056.715l.012.233.352.006c.251,0,.5.009.76.009a11.924,11.924,0,0,0,1.522-.082l.237-.032-.038-.452c-.011-.152-.023-.3-.04-.453l-.026-.221H65.779Z"/><path d="M58.27,80.331l.04.2h.2c.051,0,.09-.012.065-.012a42.08,42.08,0,0,0,7.834-.486l.148-.028.045-.144a.165.165,0,0,0,.007-.1c.8-2.716.652-5.247.475-8.179-.039-.647-.079-1.314-.11-2.006l-.011-.239h-.809c-.173,0-.248.142-.312.266l-.043.044c-.053.058-.139.163-.2.152l-1.069-.034c-3.009-.1-6.12-.2-9.192-.124a.258.258,0,0,1-.183-.061l-.549-.433L54.8,70a6.144,6.144,0,0,1,.185,1.183.243.243,0,0,1-.238.279l-.257.006v.024c-.338-.029-.675-.065-1.013-.1-.354-.038-.708-.077-1.06-.1a.315.315,0,0,1-.194-.093l-.1-.058a.261.261,0,0,1-.2-.277l.007-.451a9.249,9.249,0,0,0-.107-2.008l-.033-.17-.171-.028a.9.9,0,0,0-.155-.01h-.2l-.046.192c-.026.106-.056.213-.087.321l-.065.236a.307.307,0,0,1-.288.228c-.557-.031-1.289-.08-2.008-.182l-.246-.034-.088.595c-.036.231-.071.462-.1.7-.011.1-.063.346-.287.349l-.071-.016-.108.011a.235.235,0,0,1-.179,0c-1.343-.509-2.673-1.064-3.814-1.544l-.064-.027-.069.01a.368.368,0,0,1-.233-.038l-.1-.033a.3.3,0,0,1-.144-.042A32.477,32.477,0,0,0,40.267,67.4c-.6-.277-1.2-.554-1.782-.854l-.341-.173-.022.381c-.019.325-.039.65-.052.981l-.007.193.184.056a12.521,12.521,0,0,1,1.677.7,11.949,11.949,0,0,0,1.928.783.645.645,0,0,1,.407.307.944.944,0,0,0,.081.091l.066.048c3.654,1.794,7.318,2.134,11.2,2.494,1.5.139,3.058.283,4.611.519a.2.2,0,0,1,.174.115l.026.067.057.044a.255.255,0,0,1,.11.232,24.6,24.6,0,0,1-.228,2.461A13.968,13.968,0,0,0,58.27,80.331Z"/><path d="M94.737,67.458l.021.231.233,0c.628-.013,1.242-.051,1.877-.116l.265-.027-.044-.263c-.051-.31-.116-.628-.193-.938l-.038-.15-.151-.034a10.177,10.177,0,0,0-1.761-.215l-.269-.011.016.579C94.7,66.826,94.708,67.143,94.737,67.458Z"/><path d="M82.322,87.8c5.286-1.173,10.762.057,16.124-.419-.05-2.687-.05-5.153-2.453-7.263a13.615,13.615,0,0,0-7.764-3.531C81.162,76.156,81.536,82.64,82.322,87.8Zm1.527-6.034a4.306,4.306,0,0,1,2.162-2.358,7.028,7.028,0,0,1,3.8-.6,8.734,8.734,0,0,1,6.04,3.055,3.631,3.631,0,0,1,.786,1.965c.032.5-.082.773-.139.767-.184,0-.127-1.11-1.23-2.251a9.09,9.09,0,0,0-5.559-2.472,6.588,6.588,0,0,0-3.277.431,3.741,3.741,0,0,0-1.889,1.763,6.732,6.732,0,0,0-.532,1.793c-.051.469-.114.729-.19.736s-.146-.26-.222-.729A4.986,4.986,0,0,1,83.849,81.766Z"/><path d="M86.059,73.575c-.019.347-.044.7-.07,1.054l-.02.287.286-.019a9.906,9.906,0,0,1,1.217-.006c.374.023.77.064,1.211.125l.29.04-.006-.293c-.006-.293-.019-.593-.031-.887l-.065-.235h-.189c-.8-.132-1.593-.233-2.351-.3l-.258-.023Z"/><path d="M80.813,79.422l-.338.021c-.663.041-1.374.056-2.157.051l-.25,0,0,.249c-.013,1.411-.056,2.845-.1,4.232s-.086,2.827-.1,4.243l0,.242.242.01q1.185.048,2.371.126l.309.02-.045-.306a22.958,22.958,0,0,1-.012-8.556Z"/><path d="M81.171,78l.176.025.081-.158a5.311,5.311,0,0,1,1.907-2.12l.118-.074v-.139c0-.218,0-.436-.007-.66l-.007-.254-.254.012c-.524.024-1.048.052-1.573.079-.712.038-1.425.075-2.14.1l-.247.01.007.247c.028,1,.082,1.91.166,2.781l.022.232.234-.006q.719-.02,1.46-.079A.182.182,0,0,1,81.171,78Z"/><path d="M88.738,70.855c-.012-.218-.019-.439-.026-.662l-.021-.591-.257.017c-.644.043-1.308.037-1.984.031l-.247,0-.036,1.459,2.586.013Z"/><path d="M86.113,72.683l.244.021c.666.056,1.39.149,2.212.282l.308.051-.018-.312c-.013-.218-.026-.43-.045-.647l-.022-.252-.252.025a.907.907,0,0,0-.091.014.485.485,0,0,1-.081.01H86.154Z"/><path d="M79.245,72.54c-.019.459-.026.925-.026,1.385v.26l.26-.01c.623-.026,1.246-.058,1.87-.09.609-.031,1.218-.063,1.826-.087l.246-.011-.006-.247c-.013-.448-.039-.89-.078-1.332l-.02-.23h-.23c-1.083.007-2.358.026-3.611.121l-.222.017Z"/><path d="M59.513,12.725l-.055-.163-.445-.022a7.45,7.45,0,0,0-1.368.01l-.231.031.014.232c.008.133.011.265.014.4l.014.473.25-.009c.55-.018,1.107-.031,1.7-.044l.27-.006-.027-.269A2.867,2.867,0,0,0,59.513,12.725Z"/><path d="M56.42,15.113l.124.327c.163.433.307.865.445,1.3a.279.279,0,0,1-.006.182l-.1.313.327.012c.413.015.826.046,1.239.078l.591.044-.011-.281c-.009-.188-.012-.377-.017-.565-.009-.41-.018-.834-.067-1.254l-.027-.225-.227,0c-.641.013-1.282.032-1.922.051Z"/><path d="M49.593,27.419l-.111-.093-.251.092c-.1.037-.2.075-.3.106l-.442.141.361.292a12.434,12.434,0,0,0,4.4,1.9l.318.091V29.62c0-.7,0-.823-.18-.843l-.047-.03a8.751,8.751,0,0,0-3.573-1.253A.284.284,0,0,1,49.593,27.419Z"/><path d="M53.334,27.986l-.027-.43a5.062,5.062,0,0,0-.074-.62l-.021-.106-.09-.058a.662.662,0,0,1-.289-.414l-.062-.277-.268.1c-.421.153-.836.312-1.25.477l-.672.269.694.2a10.672,10.672,0,0,1,1.672.67Z"/><path d="M56.359,22.625l-.182.038-.016.185c-.013.152-.02.312-.02.478v.184l.176.054a9.158,9.158,0,0,0,2.67.417A5.935,5.935,0,0,0,61,23.662l.174-.064-.01-.184c-.007-.112-.019-.207-.034-.329l-.026-.209-.21-.009c-.513-.024-1.035-.1-1.539-.17A8.57,8.57,0,0,0,56.359,22.625Z"/><path d="M57.533,21.133l.224.015c.461.03.909.089,1.422.157l.283.037V18.889l-.259.01c-.5.019-1.005.031-1.51.025l-.247,0-.006.248c-.008.388.019.775.046,1.15.014.2.029.394.037.591Z"/><path d="M35.788,69.891h0a1.132,1.132,0,0,0-1.081-.44,1.319,1.319,0,0,0-1.087.769L33.6,70.3c-.006.169-.013.343-.013.517v.158l.143.068a2.49,2.49,0,0,0,.983.182,1.5,1.5,0,0,0,1.128-.371C35.97,70.708,36.13,70.384,35.788,69.891Z"/><path d="M45.914,72.144c-.07,1.794-.292,3.581-.285,5.381,3.86,1.173,7.809,2.1,11.764,2.941-.425-2.212.177-4.487.285-6.718C53.6,73.152,49.723,73.133,45.914,72.144Zm2.567,3.245c-.843-.171-1.477-.545-1.42-.836s.793-.381,1.629-.216c.818.114,1.458.45,1.439.748S49.368,75.516,48.481,75.389Zm4.456.945c-.64-.172-1.09-.545-1.014-.831s.653-.374,1.286-.209c.6.114,1.065.444,1.04.742S53.634,76.467,52.937,76.334Z"/><path d="M33.717,72.726c.573.344,1.153.669,1.732.987l.346.19.056-.853c.026-.373.053-.747.057-1.118l0-.358-.337.119a3.094,3.094,0,0,1-1.671.094l-.308-.074.007.465-.017.068,0,.047a1.3,1.3,0,0,1,.006.219v.141Z"/><path d="M42.415,70.635l-.05.323a31.637,31.637,0,0,0-.24,4.994l0,.679.167.059c.706.248,1.412.477,2.131.706l.321.1,0-.337c.014-.947.083-1.912.15-2.845.058-.814.118-1.656.142-2.488l0-.188-.178-.057a21.114,21.114,0,0,1-2.155-.814Z"/><path d="M36.38,69.475,36.418,69c.043-.553.087-1.1.111-1.653L36.545,67l-.334.1a.3.3,0,0,1-.173,0,12.826,12.826,0,0,0-2.892-.292c-.364-.009-.729-.017-1.092-.038l-.188-.011-.063.177a1.411,1.411,0,0,1-.525.679l-.313.226.334.193c.224.13.445.265.666.4.438.268.891.545,1.364.776l.052.048h.185l.065-.048a1.941,1.941,0,0,1,2.376,0Z"/><path d="M36.865,42.529a3.487,3.487,0,0,0-2.5.956A1.971,1.971,0,0,0,33.933,45a5.126,5.126,0,0,0,2,3.57.717.717,0,0,1,.208.223l.071.13h.905l.048-.022a.632.632,0,0,1,.3-.054l.418.006.473-.13.049-.054a4.5,4.5,0,0,0,1.249-4.061A2.437,2.437,0,0,0,36.865,42.529Z"/><path d="M69.651,55.463l.315-.046a13.014,13.014,0,0,1,1.548-.13l.223-.006.02-.222c.057-.624.065-1.335.065-1.949a.648.648,0,0,1,.01-.092l.006-.042-.008-.042a.922.922,0,0,1-.011-.309l.045-.313-.315.029a3.872,3.872,0,0,1-1.516-.166l-.325-.106,0,.342c0,.3,0,.6.009.9a15.606,15.606,0,0,1-.034,1.834Z"/><path d="M29.356,65.909c-.025.366-.05.726-.082,1.092l-.019.221.217.045c.144.03.289.066.427.109l.039.012h.041a1.65,1.65,0,0,0,.832-.207.878.878,0,0,0,.327-.294.6.6,0,0,0,.11-.386.565.565,0,0,0-.119-.314,1.118,1.118,0,0,0-.364-.305,2.445,2.445,0,0,0-1.163-.2l-.23,0Z"/><path d="M40.831,40.183H37.915l.017.266c.011.19.029.375.051.61l.017.179.176.041a3.471,3.471,0,0,1,2.556,2.057l.474,1.155.008-1.248c.006-.9-.011-1.857-.051-2.839l-.01-.24h-.24C40.858,40.164,40.816,40.179,40.831,40.183Z"/><path d="M33.356,50.11l-.306.012c-.558.021-1.129.009-1.68,0-.427-.009-.85-.016-1.28-.012l-.246,0v.246c-.008,3.769-.052,6.652-.145,9.348l-.01.271.271-.013c.3-.014.607-.036.91-.058a9.8,9.8,0,0,1,2.773.053l.294.062.007-.3c.057-2.151.115-4.376.127-6.56l.007-.223-.136-.069a1.767,1.767,0,0,1-.492-.363.782.782,0,0,1-.2-.6l-.018-.15a6.15,6.15,0,0,1,.073-1.34Z"/><path d="M40.024,48.894l.423.016c.489.019.984.038,1.474.051l.248.006.008-.248c.031-.933-.005-1.88-.039-2.8l-.032-.912-1.023-.075.011.28a5.856,5.856,0,0,1-.852,3.315Z"/><path d="M29.653,60.838c-.05,1.165-.114,2.544-.209,3.936l-.017.262.261.006a2.424,2.424,0,0,1,2.1.941l.064.134.147.008c.416.024.832.038,1.244.051l.764.025-.13-.35a.729.729,0,0,1-.047-.26c.006-1.57.045-3.166.082-4.711l.005-.2-.191-.05a8.579,8.579,0,0,0-2.917-.1c-.307.025-.612.049-.917.064l-.228.01Z"/><path d="M40.522,34.187c-.395.016-.789.015-1.186.013-.229,0-.459,0-.688,0l-.2,0-.045.191a20.312,20.312,0,0,0-.52,4.774l0,.249,3.232.006-.016-.264c-.059-1.059-.135-2.117-.212-3.176l-.127-1.8Z"/><path d="M58.149,10.7c2,.061,4.065.124,6.1.146l.249,0,0-.248a5.921,5.921,0,0,0-.145-1.271l-.041-.2H52.139l-.065.476a.417.417,0,0,1-.153.259l-.076.068-.007.1c-.007.1-.007.183-.007.271v.247l.247,0C54.1,10.572,56.159,10.635,58.149,10.7Z"/><path d="M48.029,25.124c.046.494.116,1.013.218,1.633l.046.283.274-.084c.845-.26,1.679-.587,2.485-.9.74-.29,1.505-.59,2.272-.835l.144-.046.026-.15a3.562,3.562,0,0,1,.117-.5l.112-.336-.354.007c-1.766.038-3.543.1-5.279.171l-.461.02.268.376A.719.719,0,0,1,48.029,25.124Z"/><path d="M42.477,8.46l.079.259a1.021,1.021,0,0,0,.457.625l.144.084.133-.1c.019-.015.042-.012.062-.021.015,1.086.027,2.172.044,3.258a.815.815,0,0,0,.017,1.285c.017,1.025.025,2.05.042,3.074a.866.866,0,0,0-.216.054.911.911,0,0,0-.395,1.273.424.424,0,0,0,.63.13c.029,1.873.062,3.747.076,5.621a.45.45,0,0,0,.9,0v-.1l1.18-.063-.06-.287c-.073-.345-.164-.687-.255-1.028-.068-.255-.136-.509-.2-.764l-.04-.172-.174-.02c-.09-.01-.175-.026-.263-.042l-.224-.015q-.017-1.374-.037-2.749a.576.576,0,0,0,.152-.034c.512-.269.368-.945.084-1.319a1.465,1.465,0,0,0-.258-.258c-.015-.939-.023-1.879-.038-2.819a.929.929,0,0,0,.826-1.577.433.433,0,0,0-.278-.274,1.063,1.063,0,0,0-.123-.023,1.532,1.532,0,0,0-.452-.136c-.016-1.012-.027-2.024-.041-3.036.23.009.46.019.692.015l.311-.009-.074-.3a.941.941,0,0,0-.943-.721c-.011-.952-.031-1.9-.038-2.854a.44.44,0,0,0-.014-.067,2.208,2.208,0,0,0,.23,0c.764-.065.771-1.266,0-1.2a1.38,1.38,0,0,1-.86-.171.6.6,0,0,0-.606,1.036,2.759,2.759,0,0,0,.408.186.413.413,0,0,0-.058.218c.007.963.027,1.926.039,2.889-.194.024-.39.05-.6.1ZM44.414,13.4c.016-.029.036-.036.054-.051C44.527,13.4,44.519,13.418,44.414,13.4Z"/><path d="M42.514,39.312l.013.244.244-.008c.9-.027,1.8-.115,2.678-.2,1-.1,2.04-.2,3.059-.2l.271,0-.024-.27c-.149-1.725-.315-3.309-.508-4.847-.18-1.378-.478-2.749-.766-4.074-.281-1.291-.571-2.626-.749-3.957l-.027-.206-.208-.011c-.441-.022-.882-.055-1.322-.088a25.176,25.176,0,0,0-2.839-.108l-.221.008-.018.221A65.556,65.556,0,0,0,42.3,36C42.374,37.106,42.453,38.209,42.514,39.312Z"/><path d="M63.639,25.842a.774.774,0,0,1-.005.674l-.194.388.434-.027a14.464,14.464,0,0,0,3.876-.926l1.4-.493-5.681.028Z"/><path d="M105.156,116.639a17.317,17.317,0,0,0-3.05-.912c-.646-.107-1.289-.2-1.93-.283a27.665,27.665,0,0,1-4.47-.862h0c-4.006-1.223-8.291-2.348-13.486-3.541a109.512,109.512,0,0,1-12.527-3.963l-.621-.224c-2.313-.837-4.7-1.568-7-2.275-1.927-.592-3.92-1.2-5.858-1.872C43.6,98.362,32.488,91.643,24.09,83.274l-.383.319A35.471,35.471,0,0,0,27.345,88.1a63.948,63.948,0,0,0,9.942,7.932c.715.5,1.426.991,2.125,1.487a36.009,36.009,0,0,0,7.044,3.559c1.488.621,3.026,1.262,4.451,2,5.758,3,11.836,5.448,17.714,7.817,3.132,1.263,6.37,2.568,9.525,3.941,4.776,2.084,9.5,4.027,14.8,4.911a55.294,55.294,0,0,1,6.942,1.482,19.21,19.21,0,0,0,5.6,1.11c.077,0,.154,0,.23,0l.218-.005.025-.215c.175-1.471.373-3.137.627-4.758l.033-.209-.2-.067C105.994,116.947,105.575,116.793,105.156,116.639Z"/><path d="M53.206,44.065l-.507-.01c-.6-.019-1.273-.041-1.442.425l0,.006a.832.832,0,0,1-.242.366l-.09.077,0,.118c.006.252.054.61.108,1.024a10.63,10.63,0,0,1,.113,2.951c.005.9-.013,1.8-.031,2.694q-.015.691-.025,1.384l0,.3.3-.051c.27-.047.545-.073.815-.1.131-.012.261-.024.379-.037H52.8l.09-.729a27.7,27.7,0,0,0,.306-4.207c-.045-1.352-.024-2.7.007-3.96Z"/><path d="M17.661,67.925l.046.033a.348.348,0,0,1,.1.073,2.969,2.969,0,0,0,1.692.941l.334.074-.03-.34c-.088-1-.1-1.846.66-2.142s1.455.211,2.18.755l.569.421.033-.452a4.48,4.48,0,0,1,.06-.513l.026-.149-.119-.092a18.556,18.556,0,0,0-2.338-1.574l-.1-.057-.109.042a.552.552,0,0,1-.2.034,27.147,27.147,0,0,0-5.257.684l-.233.051.041.236a8.139,8.139,0,0,0,.47,1.628l.064.159.171,0a7.722,7.722,0,0,1,1.8.12A.3.3,0,0,1,17.661,67.925Z"/><path d="M102.634,101.777l-.157.173a6.991,6.991,0,0,0-1.549,3.306l-.064.278.283.028c.24.023.478.04.7.04.566,0,1.044-.109,1.243-.5.447-.855.561-2.52-.275-3.183Z"/><path d="M104.96,90.549l.232.022c1.536.147,3.4.3,5.342.3.852,0,1.717-.028,2.574-.1l.783-.063-.676-.4a41.206,41.206,0,0,0-7.945-3.6l-.354-.118.025.372c.076,1.111.05,2.252.025,3.355Z"/><path d="M23.227,68.485a5.859,5.859,0,0,1-.876-.578c-.1-.078-.208-.157-.314-.232l-.125-.093c-.313-.237-.786-.595-1.216-.43-.383.153-.382.8-.257,1.8l.023.186.186.03a5.155,5.155,0,0,1,.921.217A3.091,3.091,0,0,1,23,70.725l.372.549.083-.658c.076-.605.146-1.2.2-1.808l.026-.273-.313-.013A.3.3,0,0,1,23.227,68.485Z"/><path d="M25.444,59.432l0,.181.174.055a1.575,1.575,0,0,1,1.031.98,1.863,1.863,0,0,1-.526,2.049l-.091.075.029.393.169.058c1.371.658,1.215,2.159,1.065,3.61-.027.263-.054.52-.071.768l-.017.239.239.027a4.348,4.348,0,0,1,.792.162l.293.089.029-.306c.211-2.284.365-4.709.467-7.461a.588.588,0,0,1,.015-.228c.13-3.5.153-7.025.159-9.7v-.277l-.275.028c-.2.019-.4.045-.594.078l-.171.029-.033.171a13.525,13.525,0,0,0-.1,3.094c.016.386.033.771.036,1.148a.689.689,0,0,1-.161.46.7.7,0,0,1-.777.374,13.575,13.575,0,0,1-1.4-.405l-.319-.108-.011.337c-.029.882,0,1.775.02,2.64C25.427,58.472,25.44,58.952,25.444,59.432Z"/><path d="M25.11,62.491l.168,0,.1-.079a1.194,1.194,0,0,0,.706-1.284,1.018,1.018,0,0,0-.815-.917l-.085-.012-.074.042a.739.739,0,0,1-.365.108l-.155.006-.06.038a.952.952,0,0,0-.479.972A1.47,1.47,0,0,0,25.11,62.491Z"/><path d="M21.8,63.859l.083.078c.343.2.655.395.951.6l.276.193.105-.32a1.985,1.985,0,0,1,1.045-1.153l.389-.19-.359-.242a1.971,1.971,0,0,1-.67-.766l-.1-.2-.21.08a.447.447,0,0,1-.207.036c-.277-.025-.548-.068-.813-.118l-.265-.049L22,62.077a10.416,10.416,0,0,1-.26,1.53l0,.159Z"/><path d="M33,69.754l-.148-.076c-.374-.192-.745-.418-1.1-.637a10.356,10.356,0,0,0-1.933-1l-.214-.021-.41-.093-.172,1.691.117.084c.094.069.188.139.281.21.133.1.266.2.4.293.928.646,1.847,1.254,2.728,1.807l.411.258-.035-.595a5.591,5.591,0,0,1,.045-1.492Z"/><path d="M24.734,63.747a1.291,1.291,0,0,0-.959,1.259l-.01.206.1.076c.823.632,1.623,1.33,2.4,2.005l.343.3.086-.561a3.979,3.979,0,0,0-.192-2.775A1.539,1.539,0,0,0,24.734,63.747Z"/><path d="M101.207,102.607a5.742,5.742,0,0,1,.758-1.05l.144-.159-.134-.167a13.629,13.629,0,0,1-1.857-2.863l-.177-.381-.25.338c-.1.133-.187.265-.312.454l-.072.109.048.122c.156.392.293.8.43,1.215a12.2,12.2,0,0,0,.988,2.388l.222.374Z"/><path d="M43.407,59.388l-.5.007-.118.029a.8.8,0,0,1-.762-.013.647.647,0,0,1-.309-.6V57.688l-.257.008c-.864.025-1.717.031-2.5.037l-.319,0,0,.244c-.03,1.972-.175,3.963-.314,5.888q-.06.821-.117,1.642l-.011.16.141.077c.751.406,1.532.773,2.288,1.127.782.367,1.59.746,2.357,1.167l.376.206,0-.429q-.014-.87-.033-1.738c-.044-2.108-.089-4.287.07-6.423Z"/><path d="M45.414,39.989c-.855.085-1.739.172-2.608.2l-.253.009.012.253c.047,1.059.062,2.024.044,2.95l-.005.242.241.012c1.086.059,2.167.08,3.2.08.988,0,1.933-.019,2.8-.041l.26-.007-.017-.26c-.076-1.142-.159-2.277-.248-3.419l-.017-.232h-.233C47.527,39.781,46.453,39.887,45.414,39.989Z"/><path d="M42.089,52.543v.082l-.083.033.09,2.024.434-.783a.439.439,0,0,1,.048-.076c.585-.793,1.571-.581,2.544-.239a.345.345,0,0,1,.166.14l.064.066a.3.3,0,0,1,.129.244c.024.25.058.5.091.748.045.336.09.672.112,1.012l.015.242.242-.008c1.092-.033,2.279-.094,3.736-.191l.238-.015-.005-.239c-.013-.687.01-1.452.443-1.812l.089-.074v-.116c.005-.782.026-1.564.046-2.345l.032-1.257-.31.065A6.781,6.781,0,0,1,48.5,50.1c-.31-.016-.609-.031-.875-.024l-.438.008c-1.266.023-2.577.046-3.863.024L43.01,50.1l.067.308a4.641,4.641,0,0,1,.115,1.189.721.721,0,0,1-.515.686l-.067.019-.047.05a.893.893,0,0,1-.273.189Z"/><path d="M38.045,50.254l-.037.012a.537.537,0,0,0-.106.033l-.027-.007-.045.018c-.573.111-1.168.169-1.743.224-.406.039-.813.078-1.218.135l-.192.028-.021.193a5.261,5.261,0,0,0-.027.566v.218l.217.029a.836.836,0,0,1,.213.052l.066.028.069-.011a30.018,30.018,0,0,1,6.136-.358l.072,0,.063-.034a1.232,1.232,0,0,1,.149-.063l.185-.074-.03-.2c-.027-.171-.053-.342-.093-.512l-.043-.188-.969-.029c-.862-.026-1.721-.051-2.58-.066Z"/><path d="M40.855,71.861h-.273c-.775,0-1.569-.037-2.334-.075-.481-.025-.961-.05-1.441-.064l-.253-.008-.005.253c-.005.3-.026.6-.047.9-.027.4-.055.812-.048,1.225l0,.151.134.067a38.167,38.167,0,0,0,3.554,1.6l.583.22,0-.366c-.006-1.151,0-2.387.107-3.629Z"/><path d="M35.237,65.215v.239l1.568.075.122-1.7c.162-2.205.329-4.485.313-6.762h0a.641.641,0,0,1,.677-.667L38,56.385a.8.8,0,0,1,.3-.052c.623,0,1.307-.006,2.068-.013l.223,0,.024-.222a17.8,17.8,0,0,0,.026-2.538c-.013-.362-.027-.723-.031-1.082a.791.791,0,0,1,.014-.148l.059-.294-.3,0a30.592,30.592,0,0,0-4.671.307l-.167.023-.042.164a.7.7,0,0,1-.059.163l-.055.1.04.108a.709.709,0,0,1,.048.253c-.01,2.047-.065,4.129-.118,6.143C35.3,61.23,35.25,63.238,35.237,65.215Z"/><path d="M68.323,26.408a16.331,16.331,0,0,1-4.579,1.118l-.257.012L63.6,28.9l.339-.186a20.021,20.021,0,0,1,4.615-1.651c.654-.172,1.285-.392,1.906-.618a1.921,1.921,0,0,0,.755-.032,3.652,3.652,0,0,0,.481-.192c.085-.032.163-.054.244-.08a5.471,5.471,0,0,0,.279,1.292c.163.45.888.256.723-.2a5.267,5.267,0,0,1-.267-1.278,6.7,6.7,0,0,1,.946-.082,37.006,37.006,0,0,0,3.927-.3c.086.765.177,1.531.22,2.3a.332.332,0,0,0-.13.389l.167.547a.377.377,0,0,0,.737-.1,31.022,31.022,0,0,0-.274-3.4.388.388,0,0,0-.027-.264A16.013,16.013,0,0,1,78.15,22c.042-.481-.709-.478-.75,0a15.332,15.332,0,0,0,.072,2.843,34.22,34.22,0,0,1-4.137.28c-.257,0-.479.008-.7.027-.012-.846.053-1.708.047-2.485a.375.375,0,0,0-.75,0c.006.833-.062,1.754-.04,2.656-.257.1-.5.22-.759.3-.055-.014-.109-.032-.165-.042h-.123l-.081.049c-.065.017-.128.04-.193.058a1.183,1.183,0,0,1-.119,0,.369.369,0,0,0-.381.149C69.477,26.017,68.892,26.211,68.323,26.408Z"/><path d="M51.26,42.787a5.839,5.839,0,0,1,1.375-.116l.6-.009.009-.336c.005-.2.01-.4.01-.6.03-1.58.091-3.2.151-4.76.065-1.722.133-3.5.159-5.253l-.015-.255H53.3c-.369,0-.738.007-1.107.013-.875.013-1.779.027-2.665-.012l-.317-.009.062.313c.031.153.062.306.086.465l.035.228.23-.016a13.471,13.471,0,0,1,2.079.043.834.834,0,0,1,.255.069l.071.019a.548.548,0,0,1,.522.629,13.316,13.316,0,0,0,.02,1.783c.076,1.448.162,3.089-.608,3.915a2,2,0,0,1-1.512.565l-.268.005.023.267c.089,1.013.165,2.025.234,3.038l.027.394.345-.193A2.016,2.016,0,0,1,51.26,42.787Z"/><path d="M44,68.255l0,.164.151.063c.9.378,2.093.872,3.3,1.334l.291.112.083-.554c.027-.181.055-.362.079-.56a.39.39,0,0,1,.049-.151l.023-.072a.408.408,0,0,1,.159-.265.31.31,0,0,1,.245-.044,16.425,16.425,0,0,0,1.945.219l.2.01.058-.191a1.342,1.342,0,0,0,.064-.282.539.539,0,0,1,.059-.175l.023-.074c.018-.122.088-.3.287-.263.657.013,1.3.081,1.953.157l.276.032,0-.277c.009-.742.023-1.483.038-2.224.039-1.966.079-4,0-6l-.011-.275-.272.037A.883.883,0,0,0,52.89,59c-2.591.223-5.328.343-8.614.379l-.229,0-.018.229c-.163,2.175-.116,4.38-.07,6.513C43.974,66.835,43.989,67.545,44,68.255Z"/><path d="M42.78,49.525l.307-.047.065-.016c1.394.024,2.81,0,4.178-.021.769-.013,1.538-.025,2.307-.03a.864.864,0,0,0,.678-.247,1.358,1.358,0,0,0,.149-1.073c-.013-.124-.027-.255-.035-.39l-.04-.648c-.034-.543-.068-1.086-.09-1.666l-.062-.322-.21.005c-2.3.056-4.68.115-7.01,0l-.271-.013.037,1.017a31.023,31.023,0,0,1,.016,3.141Z"/><path d="M49.029,30.605l.041.186.189.01c.563.032,1.129.042,1.69.042.414,0,.826-.006,1.232-.01l2.1-.024-1.6-.472a14.894,14.894,0,0,1-3.6-1.456l-.5-.306.12.57C48.813,29.627,48.921,30.117,49.029,30.605Z"/><path d="M50.082,38.093l.22-.022h.033a.842.842,0,0,0,.606-.26c.554-.6.4-2.173.274-3.435l-.052-.545-.215-.012a9.509,9.509,0,0,0-1.061-.013l-.263.014.028.263c.135,1.215.251,2.425.368,3.629Z"/><path d="M77.321,55.315l-.047.187a.941.941,0,0,1-.119.281l-.048.074.01.087c.083.779.112,1.666.112,2.237v.25h1.229l.075-.09a.271.271,0,0,1,.143-.1,6.9,6.9,0,0,0,1.076-.476c.16-.082.319-.164.481-.24l.145-.067V55.336l-.239-.011c-.866-.037-1.745-.025-2.625-.013Z"/><path d="M79.375,58.646l-.178.1.044.2c.2.881.4,1.791.513,2.706l.028.228.229-.008c.78-.027,1.49-.067,2.177-.122l.431-.047-.079-.645a14.958,14.958,0,0,1-.142-3.7l.027-.2-.185-.071a1.739,1.739,0,0,0-.594-.124l-.273-.009.021.363a1.845,1.845,0,0,1,.006.226.329.329,0,0,1-.225.313,5.7,5.7,0,0,0-1.329.554C79.69,58.489,79.534,58.57,79.375,58.646Z"/><path d="M76.5,56.117l-.248.021c-.909.075-1.845.066-2.75.055l-.665,0a.473.473,0,0,1-.073-.01l-.28-.047-.011.285c-.019.5-.013,1.009-.006,1.514l0,.231.23.015c.37.025.746.063,1.135.108a.259.259,0,0,1,.129.044l.118.039a.32.32,0,0,1,.145.049l.1.04,2.263-.025v-.25c0-.506-.007-1.168-.064-1.816Z"/><path d="M72.687,48.863l-.068-.06a.623.623,0,0,1-.179-.3,1.514,1.514,0,0,0-.82-.9,3.762,3.762,0,0,0-2.7-.189l-.48.17.429.275a4.21,4.21,0,0,1,.856.73.43.43,0,0,1,.079.154l.028.062a.247.247,0,0,1,.05.176,4.5,4.5,0,0,1-.175.922c-.044.17-.089.341-.125.52-.065.342-.175.913.556,1.123a4.55,4.55,0,0,0,1.194.18,1.707,1.707,0,0,0,1.177-.37.308.308,0,0,1,.145-.076l.16-.046.019-.166a8.8,8.8,0,0,0-.134-2.112Z"/><path d="M69.445,41.075h0c-2.114.651-3.054,2.349-2.645,4.781l.026.15.144.046a3.287,3.287,0,0,1,.678.307l.125.075.127-.073a4.85,4.85,0,0,1,4.165-.072l.231.106.1-.233a4.749,4.749,0,0,0-.572-4.5A2.135,2.135,0,0,0,69.445,41.075Z"/><path d="M62.743,81.775a.7.7,0,0,1,.271-.051c.735.006,1.47.022,2.2.037.922.02,1.843.039,2.759.039h.6l-.427-.426a8.866,8.866,0,0,0-.835-.731l-.092-.072-.115.025a26.8,26.8,0,0,1-5.206.546l-2.219.047,2.984.615Z"/><path d="M73.873,90.671c.044-.482.069-.957.076-1.432a1.686,1.686,0,0,1,1.35-1.11c.557.007,1.115.032,1.679.051.026-2.821.171-5.641.2-8.462-.609-.012-1.223-.031-1.838-.05.038.906.038,1.965.038,1.965a.949.949,0,0,1-.2.6.8.8,0,0,1-.659.634,44.294,44.294,0,0,1-10.065.526,18.414,18.414,0,0,0,1.394,6.763A36.6,36.6,0,0,0,73.873,90.671Zm-8.323-3.86c0-.3,2.193-.564,4.925-.577,2.757.019,4.957.628,4.9.894-.064.317-2.225.2-4.906.177C67.762,87.318,65.55,87.109,65.55,86.811Z"/><path d="M85.581,61.385l.979-.116,0-.218a2.237,2.237,0,0,1,.124-.7l.033-.089-.057-.149a10.4,10.4,0,0,1-.226-1.762l-.03-.412c-.047-.616-.118-1.548-.754-1.962a2.718,2.718,0,0,0-.917-.36l-.2-.037-.079.184a14.33,14.33,0,0,0-.838,5.557l0,.283.281-.03C84.463,61.519,85.022,61.452,85.581,61.385Z"/><path d="M95.987,91.406c-6.744-.215-13.431-1.229-20.175-1.362-.025.526-.07,1.052-.12,1.571a.971.971,0,0,1-.951.951.6.6,0,0,1-.152-.019.714.714,0,0,1-.165.019A38.9,38.9,0,0,1,64.9,91.9a.847.847,0,0,1-.672-.723,20.789,20.789,0,0,1-1.68-7.739.935.935,0,0,1-.184-.019c-7.986-1.6-16.118-3.245-23.68-6.338A48.908,48.908,0,0,1,29,71.637c-1.515-1.078-2.935-2.39-4.386-3.638-.089,1.331-.292,2.643-.431,3.967a.577.577,0,0,1-.457.52.469.469,0,0,1-.621-.114c-.38-.45-.684-.938-1.033-1.413a2.293,2.293,0,0,0-1.711-.951.62.62,0,0,1-.463-.057A3.829,3.829,0,0,1,17.214,68.7a5,5,0,0,0-.97-.082c1.052,2,2.592,3.854,3.315,6.142a30.718,30.718,0,0,0,1.7,4.17C31.107,90.4,45.28,98.512,59.586,102.86c8.424,2.56,16.568,5.8,25.138,7.853,4.139.989,8.214,2.428,12.36,3.334,2.028.444,4.227.412,6.211,1.071,1.078.361,2.136.761,3.22,1.09a39.319,39.319,0,0,1,1.5-6.021c1.192-3.455,3.391-6.966,3.956-10.572a.878.878,0,0,1,.038-.489c.494-1.343,1.134-2.63,1.609-3.986a8.6,8.6,0,0,0,.691-2.853C108.3,92.953,102.028,91.6,95.987,91.406ZM30.264,82.792c-.063.121-.792-.177-1.85-.874a21.716,21.716,0,0,1-3.607-3.3c-1.255-1.407-2.345-2.693-3.144-3.6-.824-.912-1.324-1.508-1.223-1.622s.767.285,1.737,1.064A36.759,36.759,0,0,1,25.606,77.9c1.248,1.395,2.4,2.6,3.283,3.429C29.776,82.14,30.353,82.659,30.264,82.792Zm55.829,24.879c-1.509-.374-3.683-.945-6.37-1.68s-5.863-1.623-9.406-2.605c-1.769-.495-3.632-1.021-5.553-1.61-.963-.292-1.946-.577-2.928-.894s-1.971-.665-2.979-1.008c-.5-.171-1-.342-1.5-.507-.513-.171-.989-.386-1.477-.57-.982-.374-1.908-.824-2.827-1.236-1.812-.888-3.524-1.8-5.127-2.707s-3.119-1.749-4.545-2.541c-1.445-.774-2.789-1.49-4.012-2.149-.621-.323-1.192-.672-1.731-1s-1.045-.628-1.508-.945c-.913-.634-1.712-1.16-2.326-1.635a10.276,10.276,0,0,1-1.851-1.572,10.687,10.687,0,0,1,2.092,1.23c.652.424,1.47.893,2.4,1.47.469.285.995.558,1.534.862s1.115.628,1.743.925c1.242.615,2.6,1.294,4.063,2.022,1.464.761,3,1.6,4.614,2.472s3.309,1.762,5.1,2.618c.9.406,1.813.843,2.77,1.2.476.178.951.393,1.433.545.494.171.995.336,1.5.507,1,.343,2,.685,2.972,1.014.983.311,1.952.609,2.9.907,1.895.6,3.746,1.141,5.508,1.66,3.524,1.04,6.7,2,9.356,2.827s4.8,1.509,6.275,2a11.434,11.434,0,0,1,2.256.875A10.506,10.506,0,0,1,86.093,107.671Zm11.5,3.638c-2.738-.983-5.09-1.686-5-2,.07-.26,2.466-.044,5.343.983,1.407.456,2.65.957,3.563,1.236.912.317,1.47.589,1.445.735C102.921,112.532,100.418,112.317,97.6,111.309Zm6.453-6.174c-.641,1.579-2.111,1.274-3.531,1.262a.549.549,0,0,1-.539-.653.536.536,0,0,1-.012-.286,14.735,14.735,0,0,1,.481-1.762,18.016,18.016,0,0,1-1.958-4.481.519.519,0,0,1-.038-.209.469.469,0,0,1,.038-.494,7.69,7.69,0,0,1,1.147-1.49.568.568,0,0,1,.824.051.548.548,0,0,1,.184.253,11.7,11.7,0,0,0,2.231,3.607C104.373,101.579,104.626,103.728,104.05,105.135Zm-.97-10.515c-2.58-.032-6.148-.051-10.1-.146a87.561,87.561,0,0,1-10.128-.78,14.966,14.966,0,0,1-4.095-.969c.025-.165,1.629,0,4.2.222,2.555.2,6.111.354,10.053.462,3.943.089,7.524.228,10.11.457s4.158.513,4.158.652C107.263,94.677,105.659,94.671,103.08,94.62Zm7.156.754c-.583,0-1.059-.241-1.059-.539s.476-.532,1.059-.532,1.058.241,1.058.532S110.819,95.374,110.236,95.374Z"/><path d="M41,70.663l-.182-.07c-.4-.155-.8-.344-1.183-.527a9.934,9.934,0,0,0-2.313-.867l-.275-.054-.022.278c-.039.466-.064.939-.084,1.411l-.01.249.249.012c.326.013.652.031.977.049.734.039,1.489.08,2.241.08q.157,0,.315,0l.216,0Z"/><path d="M74.42,59.714c-.057.418-.115.839-.157,1.281,0,.212,0,.423.006.635l.007.238.239,0c.891.016,1.881.031,2.9.031.482,0,.971,0,1.458-.012l.276,0-.033-.275a20.3,20.3,0,0,0-.429-2.22l-.045-.193h-4.15Z"/><path d="M29,34.375A.375.375,0,0,0,29.375,34v-.687L37.2,31.891c1.057-.074,2.119-.138,3.175-.158l.256,0-.012-.257c-.024-.542-.044-1.084-.05-1.62l-.005-.448-.378.239a11.809,11.809,0,0,1-3.65,1.406c-.637.147-1.273.313-1.906.477l-.319.083.007.043-4.941.9V31a.375.375,0,0,0-.75,0v3A.375.375,0,0,0,29,34.375Z"/><path d="M28.9,24.9c.16.07.323.125.484.186a6.242,6.242,0,0,0,.481,2.276c.183.439.909.246.723-.2a5.789,5.789,0,0,1-.433-1.824,8.951,8.951,0,0,0,1.012.223A52.66,52.66,0,0,0,40.3,26.746c.164,0,.327-.075.339-.234.031-.472.069-.95.119-1.423,0-.009.007-.021.007-.029a.25.25,0,0,0-.05-.22.244.244,0,0,0-.206-.09c-1.352.072-3.733.042-6.034.014-1.377-.017-2.69-.033-3.7-.026-.208-.045-.413-.1-.617-.163a5.673,5.673,0,0,1,.253-1.4c.149-.46-.575-.657-.724-.2a6.467,6.467,0,0,0-.268,1.334c-.048-.02-.1-.034-.146-.056C28.839,24.059,28.456,24.705,28.9,24.9Z"/></g><text x="0" y="143" fill="#000000" font-size="5px" font-weight="bold" font-family="'Helvetica Neue', Helvetica, Arial-Unicode, Arial, Sans-serif">Created by Hey Rabbit</text><text x="0" y="148" fill="#000000" font-size="5px" font-weight="bold" font-family="'Helvetica Neue', Helvetica, Arial-Unicode, Arial, Sans-serif">from the Noun Project</text></svg>